<svg width="40" height="40" viewBox="0 0 40 40" fill="none" xmlns="http://www.w3.org/2000/svg">
<rect width="40" height="40" rx="8" fill="#EFF1F7"/>
<path d="M29.0836 17.2487C28.6824 17.1927 28.2994 17.0506 27.9633 16.8328C27.6272 16.6151 27.3466 16.3274 27.1424 15.9911C26.9382 15.6548 26.8156 15.2786 26.7839 14.8905C26.7521 14.5024 26.8119 14.1124 26.9588 13.7496C27.0522 13.5124 27.066 13.2531 26.9982 13.008C26.9303 12.763 26.7843 12.5444 26.5806 12.383C25.6812 11.6579 24.6575 11.0882 23.5551 10.6995C23.304 10.61 23.0299 10.5988 22.7719 10.6675C22.5139 10.7363 22.285 10.8815 22.1179 11.0824C21.8664 11.3912 21.545 11.6409 21.1781 11.8126C20.8111 11.9843 20.4082 12.0736 20 12.0736C19.5918 12.0736 19.1889 11.9843 18.822 11.8126C18.455 11.6409 18.1336 11.3912 17.8821 11.0824C17.715 10.8815 17.4862 10.7363 17.2281 10.6675C16.9701 10.5988 16.696 10.61 16.445 10.6995C15.427 11.0584 14.4753 11.571 13.6257 12.218C13.4115 12.3807 13.2573 12.6051 13.1855 12.8581C13.1137 13.1112 13.1282 13.3796 13.2269 13.6242C13.3855 13.9966 13.4511 14.3995 13.4183 14.8007C13.3855 15.2018 13.2552 15.59 13.0379 15.934C12.8206 16.2781 12.5224 16.5685 12.1671 16.7819C11.8118 16.9953 11.4094 17.1258 10.9921 17.1629C10.7211 17.1907 10.4667 17.3013 10.2661 17.4784C10.0656 17.6555 9.92957 17.8897 9.8781 18.1466C9.75006 18.7551 9.68556 19.3743 9.68556 19.9951C9.68462 20.5149 9.72832 21.0338 9.81621 21.5466C9.85995 21.8117 9.99345 22.0556 10.196 22.2406C10.3986 22.4256 10.6591 22.5413 10.937 22.5699C11.3635 22.6083 11.7742 22.7443 12.1347 22.9664C12.4952 23.1885 12.7951 23.4902 13.0092 23.8464C13.2233 24.2026 13.3454 24.6028 13.3653 25.0137C13.3853 25.4245 13.3024 25.8339 13.1237 26.2076C13.0068 26.4507 12.9778 26.7244 13.0413 26.9851C13.1048 27.2459 13.2573 27.4788 13.4744 27.6469C14.3684 28.3588 15.3823 28.9192 16.4725 29.304C16.6119 29.3503 16.7581 29.3749 16.9057 29.3766C17.108 29.3762 17.3072 29.3292 17.4866 29.2396C17.6661 29.15 17.8206 29.0204 17.9371 28.8616C18.1822 28.5188 18.5107 28.2386 18.8942 28.0453C19.2776 27.852 19.7044 27.7515 20.1375 27.7525C20.5572 27.753 20.9709 27.8476 21.3457 28.0287C21.7206 28.2098 22.0462 28.4724 22.2967 28.7956C22.4633 29.0107 22.6993 29.1668 22.968 29.2396C23.2366 29.3124 23.5228 29.2979 23.782 29.1983C24.7788 28.8132 25.7069 28.2808 26.5325 27.6205C26.7399 27.4558 26.8876 27.2323 26.9543 26.982C27.021 26.7317 27.0033 26.4675 26.9038 26.2274C26.7421 25.8598 26.6716 25.4611 26.6978 25.0629C26.7241 24.6646 26.8464 24.2777 27.0551 23.9326C27.2638 23.5875 27.5533 23.2937 27.9005 23.0744C28.2478 22.8551 28.6434 22.7163 29.0561 22.6689C29.3237 22.6334 29.5726 22.517 29.7667 22.3366C29.9608 22.1562 30.09 21.9211 30.1357 21.6654C30.2461 21.1148 30.3059 20.5559 30.3145 19.9951C30.3146 19.4037 30.257 18.8135 30.1425 18.2324C30.0961 17.9824 29.9688 17.7528 29.7787 17.5762C29.5886 17.3996 29.3454 17.285 29.0836 17.2487ZM23.4382 19.9951C23.4382 20.648 23.2365 21.2862 22.8587 21.8291C22.4809 22.3719 21.944 22.795 21.3157 23.0449C20.6875 23.2947 19.9962 23.3601 19.3293 23.2327C18.6623 23.1053 18.0497 22.791 17.5689 22.3293C17.088 21.8676 16.7606 21.2795 16.6279 20.6391C16.4953 19.9988 16.5633 19.3351 16.8236 18.7319C17.0838 18.1287 17.5245 17.6132 18.0899 17.2504C18.6553 16.8877 19.32 16.6941 20 16.6941C20.9119 16.6941 21.7864 17.0419 22.4311 17.661C23.0759 18.28 23.4382 19.1196 23.4382 19.9951Z" fill="#7A8FAD"/>
</svg>
