<svg width="187" height="34" viewBox="0 0 187 34" fill="none" xmlns="http://www.w3.org/2000/svg">
<g clip-path="url(#clip0_162_3081)">
<path fill-rule="evenodd" clip-rule="evenodd" d="M25.6327 27.8235C24.0007 29.4824 22.3989 31.1783 20.6539 32.7224C18.5885 34.548 15.2982 34.3924 13.3044 32.4336C9.39604 28.5937 5.49895 24.739 1.62448 20.8658C-0.587894 18.6551 -0.516284 15.2448 1.70362 13.0526C5.57433 9.23496 9.42619 5.39876 13.2931 1.58107C15.3736 -0.470336 18.7581 -0.540691 20.8762 1.45887C22.4931 2.98817 24.0422 4.58412 25.6214 6.15044C25.2445 6.70218 24.7281 7.12801 24.2608 7.59087C22.4856 9.36456 20.6916 11.1197 18.8938 12.8712C18.2455 13.5044 17.6953 14.1968 17.3824 15.0448C16.7229 16.8296 16.8962 18.5551 18.0156 20.0993C18.841 21.2397 19.9491 22.1507 20.9366 23.1578C22.4781 24.7353 24.0648 26.2683 25.6327 27.8198V27.8235Z" fill="#2C599B"/>
<path fill-rule="evenodd" clip-rule="evenodd" d="M25.6855 6.15338C26.6919 5.33504 27.5549 4.37229 28.4746 3.46878C29.2246 2.7282 29.9595 1.97281 30.7548 1.28037C31.9759 0.213937 33.4646 -0.119323 35.0325 0.128771C36.1708 0.30651 37.2072 0.787886 38.059 1.64326C40.8857 4.47967 43.7539 7.27166 46.5919 10.0933C47.8017 11.2967 49.1095 12.4187 50.1686 13.7554C51.6611 15.6365 51.6988 18.2322 50.2251 20.1614C49.2528 21.4389 48.0165 22.4906 46.8783 23.6199C44.47 26.0083 42.0578 28.393 39.6306 30.7628C38.8015 31.5701 38.0628 32.481 37.0715 33.1179C36.02 33.7955 34.8479 34.0362 33.6003 33.9103C32.5149 33.8029 31.5576 33.3623 30.702 32.7328C30.2648 32.4106 29.9256 31.9663 29.5374 31.5775C28.3012 30.337 27.065 29.0965 25.8288 27.8598C25.7986 27.8301 25.7458 27.8264 25.7044 27.8116C25.7496 27.7561 25.7948 27.6931 25.8438 27.6413C28.1467 25.3492 30.457 23.0608 32.7599 20.7687C34.8177 18.721 34.8102 15.2329 32.7448 13.1926C30.898 11.3671 29.0474 9.54894 27.2044 7.72341C26.6881 7.21241 26.1944 6.6792 25.6893 6.15338H25.6855Z" fill="#58C4E9"/>
<path fill-rule="evenodd" clip-rule="evenodd" d="M25.6854 6.15379C26.1904 6.6759 26.6841 7.21282 27.2005 7.72382C29.0435 9.55305 30.8978 11.3712 32.7408 13.193C34.8062 15.2333 34.8138 18.7214 32.7559 20.7691C30.4531 23.0612 28.1465 25.3533 25.8399 27.6417C25.7871 27.6935 25.7457 27.7528 25.7004 27.812C25.6778 27.8194 25.6514 27.8231 25.6288 27.8194C24.061 26.2679 22.4742 24.7349 20.9327 23.1575C19.9453 22.1503 18.8372 21.2357 18.0118 20.0989C16.8924 18.5548 16.719 16.8329 17.3786 15.0444C17.6914 14.1965 18.2417 13.504 18.89 12.8708C20.6877 11.1194 22.4818 9.3642 24.2569 7.59051C24.7243 7.12395 25.2406 6.69811 25.6175 6.15009C25.6401 6.14268 25.659 6.14268 25.6816 6.15009L25.6854 6.15379Z" fill="#5266A8"/>
<path fill-rule="evenodd" clip-rule="evenodd" d="M95.5427 22.5979C95.5427 24.9234 95.5351 27.1303 95.5502 29.3372C95.5502 29.6705 95.4861 29.789 95.1168 29.7779C94.167 29.7482 93.2172 29.7593 92.2674 29.7742C92.0149 29.7742 91.9019 29.7482 91.9019 29.4483C91.9132 22.9053 91.9094 16.3586 91.9019 9.81554C91.9019 9.56744 91.9282 9.44155 92.2373 9.44895C93.1569 9.47117 94.0765 9.46376 94.9962 9.44895C95.2525 9.44895 95.3391 9.52671 95.3316 9.77851C95.3165 10.3339 95.3278 10.8894 95.3278 11.5633C95.8442 10.9338 96.3341 10.4413 96.9221 10.0599C98.2789 9.17864 99.779 8.88981 101.385 9.02312C105.481 9.35638 107.713 12.5816 108.123 15.9438C108.402 18.2618 107.939 20.3947 106.458 22.2314C104.758 24.3383 102.489 25.2011 99.7714 24.916C98.0716 24.7382 96.6583 24.031 95.5427 22.6016V22.5979ZM99.9825 21.5982C102.549 21.5982 104.588 19.5949 104.566 17.0103C104.543 14.5034 102.783 12.3779 99.9561 12.3594C97.3744 12.3446 95.3542 14.4219 95.3655 17.0399C95.3768 19.5912 97.4121 21.5982 99.9862 21.5945L99.9825 21.5982Z" fill="#302D2E"/>
<path fill-rule="evenodd" clip-rule="evenodd" d="M180.83 18.1963C178.946 18.1963 177.061 18.2074 175.181 18.1852C174.777 18.1815 174.732 18.3185 174.8 18.648C175.177 20.4106 176.782 21.7548 178.667 21.8659C180.329 21.9621 181.72 21.4882 182.639 20.0366C182.737 19.8848 182.843 19.8478 183.005 19.8515C184.06 19.8552 185.116 19.8589 186.171 19.8515C186.457 19.8515 186.514 19.9181 186.382 20.181C185.161 22.6657 183.269 24.3727 180.457 24.8615C176.775 25.4984 173.164 23.647 171.672 20.044C170.1 16.2523 171.634 11.9199 175.286 9.94623C179.767 7.52084 185.613 9.82404 186.823 15.1599C187.023 16.0375 187 16.9188 187 17.8075C187 18.1222 186.887 18.2074 186.574 18.2074C184.659 18.1963 182.745 18.2 180.834 18.2L180.83 18.1963ZM183.329 15.3895C183.31 15.0451 183.201 14.7452 183.061 14.4527C182.161 12.5716 179.933 11.6385 177.77 12.242C176.319 12.6456 175.35 13.5492 174.887 14.9637C174.789 15.2599 174.823 15.4265 175.237 15.4228C177.811 15.4006 180.385 15.4117 182.963 15.4117C183.08 15.4117 183.201 15.4006 183.329 15.3932V15.3895Z" fill="#2F2C2D"/>
<path fill-rule="evenodd" clip-rule="evenodd" d="M119.766 18.1932C117.882 18.1932 115.997 18.2043 114.113 18.1821C113.747 18.1821 113.672 18.2895 113.739 18.6116C114.128 20.4335 115.767 21.7813 117.67 21.8665C119.317 21.9368 120.689 21.4666 121.594 20.0224C121.673 19.8928 121.764 19.8447 121.918 19.8447C122.988 19.8521 124.059 19.8521 125.129 19.8447C125.367 19.8447 125.468 19.8743 125.336 20.1409C124.059 22.7589 122.073 24.4733 119.076 24.888C114.848 25.4731 110.901 22.6885 110.14 18.3709C109.398 14.1645 112.115 9.83207 116.702 9.09149C121.458 8.32499 125.235 11.565 125.86 15.5938C125.97 16.3047 125.928 17.0083 125.951 17.7192C125.962 18.0821 125.857 18.2006 125.468 18.1969C123.569 18.1784 121.669 18.1895 119.77 18.1895L119.766 18.1932ZM118.04 15.4049C119.212 15.4049 120.388 15.4049 121.56 15.4049C122.14 15.4049 122.314 15.1371 122.08 14.6014C122.057 14.5459 122.035 14.494 122.009 14.4385C121.085 12.5611 118.895 11.6317 116.758 12.2241C115.334 12.6166 114.342 13.4794 113.879 14.8791C113.706 15.4012 113.717 15.4049 114.248 15.4049C115.511 15.4049 116.777 15.4049 118.04 15.4049Z" fill="#2F2C2D"/>
<path fill-rule="evenodd" clip-rule="evenodd" d="M63.5822 11.1005C64.9804 9.22318 66.8461 8.85289 68.9491 9.04544C71.9153 9.31945 73.2872 11.1968 73.7395 13.6926C73.894 14.5553 73.9317 15.4255 73.9317 16.2994C73.9242 18.9063 73.9204 21.5131 73.9355 24.1199C73.9355 24.4458 73.8639 24.5458 73.5209 24.5347C72.6314 24.5087 71.7419 24.5013 70.8525 24.5347C70.4153 24.5532 70.2758 24.4643 70.2796 23.9977C70.3097 21.4501 70.2984 18.9026 70.2909 16.355C70.2909 15.7366 70.2155 15.1219 70.0421 14.5183C69.5786 12.9113 68.2443 12.3632 66.8197 12.3929C64.7995 12.4336 63.6312 13.8481 63.6123 15.7588C63.5859 18.5137 63.5859 21.2687 63.5935 24.0237C63.5935 24.4273 63.4993 24.5532 63.0734 24.5347C62.1537 24.4976 61.2341 24.5124 60.3145 24.531C60.0167 24.5347 59.8999 24.4828 59.8999 24.1496C59.9112 17.6325 59.9074 11.1154 59.8999 4.59826C59.8999 4.32795 59.964 4.24278 60.2467 4.24649C61.2266 4.265 62.2065 4.265 63.1864 4.24649C63.5068 4.23908 63.5897 4.33536 63.5897 4.6427C63.5784 6.59783 63.5822 8.55295 63.5822 10.5081C63.5822 10.671 63.5822 10.8302 63.5822 11.1005Z" fill="#2F2D2E"/>
<path fill-rule="evenodd" clip-rule="evenodd" d="M142.048 11.1419C143.431 9.23857 145.308 8.83865 147.43 9.04972C148.467 9.1534 149.424 9.43112 150.257 10.068C151.346 10.9012 151.874 12.0602 152.156 13.3377C152.371 14.3078 152.435 15.2965 152.431 16.2889C152.428 18.8809 152.424 21.4729 152.439 24.0613C152.439 24.4093 152.379 24.55 151.983 24.5352C151.048 24.5019 150.114 24.5093 149.179 24.5352C148.832 24.5463 148.749 24.439 148.753 24.1131C148.764 21.5359 148.757 18.9587 148.761 16.3852C148.761 15.6409 148.712 14.904 148.429 14.2116C147.818 12.723 146.556 12.3675 145.338 12.4045C143.035 12.4749 142.071 13.9968 142.056 16.2778C142.04 18.8846 142.048 21.4915 142.056 24.0946C142.056 24.4167 141.999 24.5537 141.622 24.5426C140.672 24.5093 139.723 24.5241 138.773 24.5352C138.52 24.5352 138.407 24.513 138.407 24.2131C138.419 17.6701 138.415 11.1233 138.407 4.58032C138.407 4.33593 138.468 4.25447 138.731 4.25817C139.726 4.27298 140.721 4.27668 141.716 4.25817C142.014 4.25076 142.056 4.35815 142.056 4.61735C142.044 6.76133 142.052 8.90531 142.052 11.153L142.048 11.1419Z" fill="#302D2E"/>
<path fill-rule="evenodd" clip-rule="evenodd" d="M82.5849 19.373C82.9731 18.3029 83.335 17.3142 83.6968 16.3218C84.4883 14.1556 85.2797 11.9857 86.0637 9.81583C86.1617 9.54182 86.2936 9.43444 86.6102 9.44184C87.6353 9.46776 88.6605 9.46406 89.6856 9.44184C90.0663 9.43444 90.0965 9.5196 89.9645 9.85657C87.6806 15.6405 85.4079 21.4281 83.1352 27.2157C82.8412 27.9674 82.5359 28.7154 82.2495 29.4708C82.1666 29.6893 82.0535 29.7819 81.7972 29.7782C80.7269 29.7596 79.6565 29.7633 78.5861 29.7745C78.2959 29.7745 78.2205 29.7411 78.3524 29.4375C79.11 27.6971 79.8449 25.9494 80.5987 24.2053C80.6854 24.0053 80.6892 23.8387 80.6062 23.6313C78.7821 19.0435 76.973 14.4519 75.1413 9.86767C74.9905 9.49368 75.0659 9.44184 75.439 9.44925C76.434 9.47146 77.429 9.47517 78.424 9.44925C78.7858 9.43814 78.9441 9.54552 79.0647 9.87878C80.1766 12.9189 81.3035 15.9478 82.4304 18.9842C82.4681 19.0879 82.5133 19.1916 82.5887 19.3804L82.5849 19.373Z" fill="#2F2D2E"/>
<path fill-rule="evenodd" clip-rule="evenodd" d="M132.056 11.1788C132.784 10.0717 133.756 9.39404 135.041 9.11632C136.251 8.85712 136.247 8.8386 136.247 10.0161C136.247 10.7863 136.236 11.5565 136.255 12.3267C136.259 12.5748 136.191 12.6526 135.931 12.6489C135.343 12.6415 134.762 12.7229 134.212 12.934C132.848 13.4635 132.305 14.5633 132.282 15.9C132.237 18.6068 132.26 21.3174 132.275 24.0279C132.275 24.4204 132.192 24.5574 131.766 24.5426C130.835 24.5056 129.897 24.5167 128.966 24.5426C128.657 24.55 128.589 24.45 128.589 24.1649C128.596 19.3993 128.596 14.6336 128.589 9.86431C128.589 9.57178 128.645 9.44218 128.985 9.44958C129.889 9.4718 130.794 9.4681 131.694 9.44958C132.004 9.44218 132.083 9.55326 132.068 9.83468C132.045 10.2827 132.06 10.7308 132.06 11.1825L132.056 11.1788Z" fill="#2F2C2D"/>
<path fill-rule="evenodd" clip-rule="evenodd" d="M166.542 11.1568C167.27 10.0682 168.238 9.38686 169.524 9.11655C170.711 8.86475 170.707 8.84624 170.707 10.0386C170.707 10.7792 170.692 11.5197 170.715 12.2603C170.726 12.5639 170.651 12.6491 170.326 12.6565C169.493 12.6676 168.683 12.8046 167.99 13.3045C167.059 13.9748 166.75 14.9523 166.738 16.015C166.708 18.6959 166.716 21.3731 166.731 24.054C166.731 24.4317 166.659 24.5613 166.245 24.5428C165.299 24.5058 164.345 24.5206 163.399 24.5354C163.113 24.5391 163.041 24.4465 163.041 24.1836C163.049 19.3884 163.049 14.5894 163.041 9.79418C163.041 9.50906 163.143 9.44981 163.41 9.45351C164.33 9.46833 165.25 9.46833 166.169 9.45351C166.463 9.44981 166.569 9.53128 166.55 9.83121C166.524 10.2719 166.542 10.7199 166.542 11.1606V11.1568Z" fill="#2F2C2D"/>
<path fill-rule="evenodd" clip-rule="evenodd" d="M159.577 17.0112C159.577 19.3811 159.57 21.7509 159.585 24.1171C159.585 24.4503 159.498 24.5429 159.159 24.5355C158.209 24.5133 157.259 24.517 156.309 24.5355C156.008 24.5392 155.891 24.48 155.891 24.1504C155.902 19.3811 155.902 14.6155 155.891 9.84612C155.891 9.53878 155.978 9.4388 156.298 9.44621C157.233 9.46472 158.168 9.47213 159.102 9.44621C159.472 9.4351 159.588 9.52397 159.585 9.90537C159.566 12.2752 159.577 14.6451 159.577 17.0112Z" fill="#2F2D2D"/>
<path fill-rule="evenodd" clip-rule="evenodd" d="M155.929 6.57677C155.944 6.2324 156.038 5.9732 156.245 5.76213C156.675 5.32889 157.116 4.90676 157.534 4.46242C157.704 4.28468 157.802 4.3106 157.96 4.47352C158.363 4.89195 158.793 5.28076 159.196 5.69918C159.709 6.2287 159.716 6.8656 159.215 7.39881C158.808 7.83205 158.363 8.23196 157.949 8.6578C157.798 8.80962 157.7 8.81332 157.549 8.6578C157.116 8.20975 156.667 7.77281 156.226 7.33216C156 7.10628 155.94 6.82486 155.925 6.57677H155.929Z" fill="#5867A5"/>
</g>
<defs>
<clipPath id="clip0_162_3081">
<rect width="187" height="34" fill="white"/>
</clipPath>
</defs>
</svg>
