<svg width="20" height="20" viewBox="0 0 20 20" fill="none" xmlns="http://www.w3.org/2000/svg">
<path fill-rule="evenodd" clip-rule="evenodd" d="M6.5965 2.91699C4.36067 2.91699 2.9165 4.27949 2.9165 6.38783V13.612C2.9165 15.7203 4.36067 17.0837 6.5965 17.0837H13.4032C15.639 17.0837 17.0832 15.7203 17.0832 13.612V6.38783C17.0832 4.27949 15.639 2.91699 13.4032 2.91699H6.5965ZM13.4032 18.3337H6.5965C3.64817 18.3337 1.6665 16.4362 1.6665 13.612V6.38783C1.6665 3.56366 3.64817 1.66699 6.5965 1.66699H13.4032C16.3515 1.66699 18.3332 3.56366 18.3332 6.38783V13.612C18.3332 16.4362 16.3515 18.3337 13.4032 18.3337Z" fill="#5E626F"/>
<path fill-rule="evenodd" clip-rule="evenodd" d="M13.4047 10.625H6.59473C6.24973 10.625 5.96973 10.345 5.96973 10C5.96973 9.655 6.24973 9.375 6.59473 9.375H13.4047C13.7497 9.375 14.0297 9.655 14.0297 10C14.0297 10.345 13.7497 10.625 13.4047 10.625Z" fill="#5E626F"/>
<path fill-rule="evenodd" clip-rule="evenodd" d="M10.2685 13.7484C10.1085 13.7484 9.94769 13.6876 9.82602 13.5642C9.58269 13.3192 9.58352 12.9242 9.82769 12.6809L12.5194 10.0001L9.82769 7.31925C9.58352 7.07591 9.58269 6.68091 9.82602 6.43591C10.0694 6.19091 10.4644 6.19091 10.7094 6.43425L13.846 9.55758C13.9644 9.67425 14.0302 9.83425 14.0302 10.0001C14.0302 10.1659 13.9644 10.3259 13.846 10.4426L10.7094 13.5659C10.5877 13.6876 10.4277 13.7484 10.2685 13.7484Z" fill="#5E626F"/>
</svg>
