<svg width="40" height="40" viewBox="0 0 40 40" fill="none" xmlns="http://www.w3.org/2000/svg">
<rect width="40" height="40" rx="8" fill="#EFF1F7"/>
<g clip-path="url(#clip0_167_1153)">
<path d="M12.4557 25.1767C12.6234 25.3386 12.8479 25.4282 13.081 25.4262C13.3141 25.4242 13.537 25.3307 13.7018 25.1659C13.8666 25.0011 13.9601 24.7781 13.9622 24.5451C13.9642 24.312 13.8746 24.0875 13.7127 23.9198L9.89669 20.1037L13.7127 16.2877C13.8746 16.12 13.9642 15.8955 13.9622 15.6624C13.9601 15.4294 13.8666 15.2064 13.7018 15.0416C13.537 14.8768 13.3141 14.7833 13.081 14.7813C12.8479 14.7793 12.6234 14.8689 12.4557 15.0308L8.01123 19.4753C7.84459 19.642 7.75098 19.868 7.75098 20.1037C7.75098 20.3394 7.84459 20.5655 8.01123 20.7322L12.4557 25.1767Z" fill="#7388A9"/>
<path d="M25.7891 25.1767C25.9558 25.3434 26.1818 25.437 26.4175 25.437C26.6532 25.437 26.8793 25.3434 27.046 25.1767L31.4905 20.7322C31.6571 20.5655 31.7508 20.3395 31.7508 20.1037C31.7508 19.868 31.6571 19.642 31.4905 19.4753L27.046 15.0308C26.8783 14.8689 26.6538 14.7793 26.4207 14.7813C26.1877 14.7833 25.9647 14.8768 25.7999 15.0416C25.6351 15.2064 25.5416 15.4294 25.5396 15.6624C25.5375 15.8955 25.6271 16.12 25.7891 16.2877L29.605 20.1037L25.7891 23.9198C25.6224 24.0865 25.5288 24.3126 25.5288 24.5483C25.5288 24.784 25.6224 25.01 25.7891 25.1767Z" fill="#7388A9"/>
<path d="M16.7338 27.1432C16.8411 27.1892 16.9565 27.2137 17.0732 27.2151C17.19 27.2166 17.3059 27.195 17.4143 27.1516C17.5227 27.1082 17.6215 27.0439 17.7051 26.9623C17.7887 26.8808 17.8553 26.7835 17.9013 26.6762L23.2347 14.2316C23.3276 14.0148 23.3306 13.77 23.243 13.5511C23.1554 13.3321 22.9844 13.157 22.7677 13.0641C22.5509 12.9712 22.3062 12.9682 22.0872 13.0558C21.8683 13.1434 21.6931 13.3144 21.6002 13.5311L16.2668 25.9757C16.2208 26.0831 16.1963 26.1984 16.1949 26.3152C16.1935 26.4319 16.215 26.5478 16.2584 26.6562C16.3018 26.7647 16.3661 26.8635 16.4477 26.947C16.5292 27.0306 16.6265 27.0973 16.7338 27.1432Z" fill="#7388A9"/>
</g>
<defs>
<clipPath id="clip0_167_1153">
<rect width="24" height="24" fill="white" transform="translate(8 8)"/>
</clipPath>
</defs>
</svg>
