<svg width="40" height="40" viewBox="0 0 40 40" fill="none" xmlns="http://www.w3.org/2000/svg">
<rect width="40" height="40" rx="8" fill="#EFF1F7"/>
<path d="M19.9141 20.0346C21.0382 20.0346 21.975 19.6619 22.8181 18.9163C23.7548 18.1707 24.2232 16.9591 24.2232 15.7475C24.2232 14.8155 23.9421 13.8835 23.3802 13.2312C22.6307 12.1128 21.4129 11.3672 19.9141 11.3672C17.5722 11.3672 15.605 13.3244 15.605 15.6543C15.605 18.0775 17.5722 20.0346 19.9141 20.0346Z" fill="#7A8FAD"/>
<path d="M22.3965 22.271C22.1155 22.271 21.9281 22.1777 21.6471 22.1777H18.0874C15.3708 22.1777 13.1226 24.4146 13.1226 27.1173C13.1226 27.7697 13.4036 28.2357 13.872 28.6085C14.6214 29.0745 16.4012 29.6335 19.8673 29.6335C23.3333 29.6335 25.0194 29.0745 25.8625 28.6085C25.8625 28.6085 25.9562 28.5153 26.0499 28.5153C26.4246 28.2357 26.7056 27.7697 26.7056 27.1173C26.6119 24.6942 24.8321 22.6438 22.3965 22.271Z" fill="#7A8FAD"/>
</svg>
