<svg width="56" height="56" viewBox="0 0 56 56" fill="none" xmlns="http://www.w3.org/2000/svg">
<rect width="56" height="56" rx="8" fill="white" fill-opacity="0.4"/>
<path d="M39 16.1172H17C15.3457 16.1172 14 17.4629 14 19.1172V35.1172C14 36.7715 15.3457 38.1172 17 38.1172H21V38.8848C21 39.437 21.4478 39.8848 22 39.8848H34C34.5522 39.8848 35 39.437 35 38.8848V38.1172H39C40.6543 38.1172 42 36.7715 42 35.1172V19.1172C42 17.4629 40.6543 16.1172 39 16.1172ZM40 35.1172C40 35.6685 39.5513 36.1172 39 36.1172H35V35.3491C35 34.7969 34.5522 34.3491 34 34.3491H22C21.4478 34.3491 21 34.7969 21 35.3491V36.1172H17C16.4487 36.1172 16 35.6685 16 35.1172V19.1172C16 18.5659 16.4487 18.1172 17 18.1172H39C39.5513 18.1172 40 18.5659 40 19.1172V35.1172ZM23 37.8848V36.3491H33V37.8848H23Z" fill="white"/>
<path d="M27.3794 19.293C26.8271 19.293 26.3794 19.7407 26.3794 20.293V20.6205C23.3364 21.1028 21 23.737 21 26.9136C21 30.4312 23.8618 33.293 27.3794 33.293C30.556 33.293 33.1901 30.9566 33.6724 27.9136H34C34.5522 27.9136 35 27.4658 35 26.9136C35 22.7114 31.5815 19.293 27.3794 19.293ZM27.3794 31.293C24.9644 31.293 23 29.3286 23 26.9136C23 24.8439 24.4468 23.1152 26.3794 22.6602V26.9136C26.3794 27.4658 26.8271 27.9136 27.3794 27.9136H31.6328C31.1778 29.8462 29.449 31.293 27.3794 31.293ZM28.3794 25.9136V21.3818C30.6787 21.7969 32.4961 23.6143 32.9111 25.9136H28.3794Z" fill="white"/>
</svg>
