<svg width="56" height="56" viewBox="0 0 56 56" fill="none" xmlns="http://www.w3.org/2000/svg">
<rect width="56" height="56" rx="8" fill="white" fill-opacity="0.4"/>
<g clip-path="url(#clip0_162_3244)">
<path d="M28.001 44.131C27.7863 44.131 27.5729 44.0758 27.3805 43.9647L14.4842 36.5192C14.1002 36.2977 13.8638 35.8876 13.8638 35.4446V20.5535C13.8638 20.1105 14.1002 19.7004 14.4842 19.4789L27.3805 12.0333C27.7646 11.8118 28.2374 11.8118 28.6214 12.0333L41.5165 19.4789C41.9006 19.7004 42.137 20.1105 42.137 20.5535V35.4446C42.137 35.8876 41.9006 36.2977 41.5165 36.5192L28.6214 43.9647C28.4291 44.0758 28.2157 44.131 28.001 44.131ZM16.3456 34.7279L28.001 41.4568L39.6551 34.7279V21.2701L28.001 14.5412L16.3456 21.2701V34.7279Z" fill="white"/>
<path d="M28.0007 44.1307C27.3157 44.1307 26.7598 43.5748 26.7598 42.8898V27.9987C26.7598 27.3137 27.3157 26.7578 28.0007 26.7578C28.6857 26.7578 29.2416 27.3137 29.2416 27.9987V42.8898C29.2416 43.5748 28.6857 44.1307 28.0007 44.1307Z" fill="white"/>
<path d="M27.9996 29.2406C27.7893 29.2406 27.5758 29.1872 27.3804 29.0737L14.4841 21.6282C13.8903 21.2863 13.6874 20.5275 14.0293 19.9337C14.3724 19.3399 15.1288 19.1358 15.7244 19.4795L28.6207 26.925C29.2145 27.2675 29.4174 28.0264 29.0749 28.6201C28.8453 29.0185 28.4283 29.2406 27.9996 29.2406Z" fill="white"/>
<path d="M28.0021 29.2406C27.5734 29.2406 27.1564 29.0178 26.9262 28.6201C26.5837 28.0264 26.7866 27.2675 27.3804 26.925L40.2754 19.4795C40.8686 19.1358 41.6274 19.3399 41.9705 19.9337C42.313 20.5275 42.1101 21.2863 41.5164 21.6288L28.6213 29.0743C28.4265 29.1872 28.2124 29.2406 28.0021 29.2406Z" fill="white"/>
</g>
<defs>
<clipPath id="clip0_162_3244">
<rect width="32" height="32" fill="white" transform="translate(12 12)"/>
</clipPath>
</defs>
</svg>
