<svg width="114" height="21" viewBox="0 0 114 21" fill="none" xmlns="http://www.w3.org/2000/svg">
<g clip-path="url(#clip0_167_24)">
<path fill-rule="evenodd" clip-rule="evenodd" d="M15.6264 17.1851C14.6315 18.2097 13.655 19.2572 12.5912 20.2109C11.3321 21.3384 9.32627 21.2424 8.11081 20.0325C5.72815 17.6608 3.35239 15.28 0.990406 12.8877C-0.358312 11.5223 -0.314657 9.41588 1.03866 8.06193C3.39834 5.70394 5.74653 3.33453 8.10392 0.976543C9.37222 -0.290501 11.4355 -0.333956 12.7268 0.901069C13.7125 1.84563 14.6568 2.83137 15.6195 3.7988C15.3898 4.13958 15.075 4.40259 14.7901 4.68848C13.7079 5.78399 12.6142 6.86807 11.5182 7.94986C11.123 8.34095 10.7876 8.76864 10.5969 9.29238C10.1948 10.3948 10.3005 11.4605 10.9829 12.4142C11.4861 13.1187 12.1616 13.6813 12.7635 14.3034C13.7033 15.2777 14.6706 16.2245 15.6264 17.1828V17.1851Z" fill="white"/>
<path fill-rule="evenodd" clip-rule="evenodd" d="M15.6587 3.8005C16.2722 3.29506 16.7983 2.70042 17.3589 2.14237C17.8162 1.68495 18.2642 1.21839 18.749 0.790703C19.4935 0.132023 20.401 -0.0738146 21.3569 0.0794199C22.0507 0.1892 22.6826 0.486521 23.2019 1.01484C24.9251 2.76674 26.6736 4.4912 28.4037 6.23396C29.1413 6.97726 29.9386 7.67025 30.5842 8.49589C31.4941 9.65773 31.517 11.261 30.6187 12.4525C30.0259 13.2416 29.2722 13.8911 28.5784 14.5887C27.1102 16.0638 25.6397 17.5367 24.16 19.0005C23.6545 19.499 23.2042 20.0617 22.5999 20.455C21.9588 20.8736 21.2443 21.0222 20.4837 20.9445C19.822 20.8782 19.2384 20.606 18.7169 20.2172C18.4503 20.0182 18.2435 19.7438 18.0069 19.5036C17.2533 18.7374 16.4996 17.9713 15.746 17.2074C15.7276 17.1891 15.6955 17.1868 15.6702 17.1777C15.6978 17.1434 15.7253 17.1045 15.7552 17.0725C17.1591 15.6567 18.5675 14.2433 19.9714 12.8276C21.2259 11.5629 21.2213 9.40843 19.9622 8.14825C18.8363 7.02072 17.7082 5.89776 16.5846 4.77023C16.2699 4.45461 15.9689 4.12527 15.661 3.8005H15.6587Z" fill="white"/>
<path fill-rule="evenodd" clip-rule="evenodd" d="M15.6586 3.80064C15.9664 4.12312 16.2674 4.45475 16.5822 4.77036C17.7058 5.90018 18.8362 7.02314 19.9598 8.14839C21.2189 9.40857 21.2235 11.563 19.9689 12.8278C18.5651 14.2435 17.1589 15.6592 15.7528 17.0726C15.7206 17.1046 15.6953 17.1412 15.6677 17.1778C15.654 17.1824 15.6379 17.1847 15.6241 17.1824C14.6683 16.2241 13.701 15.2772 12.7612 14.3029C12.1592 13.6808 11.4837 13.1159 10.9806 12.4138C10.2981 11.4601 10.1925 10.3966 10.5945 9.29193C10.7853 8.76818 11.1207 8.3405 11.5159 7.94941C12.6119 6.86762 13.7056 5.78354 14.7877 4.68803C15.0727 4.39986 15.3874 4.13684 15.6172 3.79835C15.631 3.79378 15.6425 3.79378 15.6563 3.79835L15.6586 3.80064Z" fill="white" fill-opacity="0.6"/>
<path fill-rule="evenodd" clip-rule="evenodd" d="M58.2454 13.9582C58.2454 15.3945 58.2408 16.7576 58.25 18.1207C58.25 18.3266 58.2109 18.3998 57.9858 18.3929C57.4068 18.3746 56.8278 18.3815 56.2488 18.3906C56.0948 18.3906 56.0259 18.3746 56.0259 18.1893C56.0328 14.1481 56.0305 10.1045 56.0259 6.06323C56.0259 5.90999 56.042 5.83223 56.2304 5.83681C56.791 5.85053 57.3516 5.84596 57.9122 5.83681C58.0685 5.83681 58.1213 5.88484 58.1167 6.04036C58.1075 6.38342 58.1144 6.72648 58.1144 7.14273C58.4292 6.75393 58.7279 6.44975 59.0863 6.21418C59.9135 5.66985 60.828 5.49146 61.8068 5.57379C64.3043 5.77963 65.6645 7.77168 65.9149 9.84835C66.085 11.2801 65.8024 12.5974 64.8994 13.7318C63.8631 15.0332 62.48 15.5661 60.8234 15.39C59.7871 15.2802 58.9255 14.8433 58.2454 13.9605V13.9582ZM60.952 13.3407C62.5167 13.3407 63.7598 12.1034 63.746 10.507C63.7322 8.95868 62.6592 7.64589 60.9359 7.63445C59.3621 7.62531 58.1305 8.90836 58.1374 10.5253C58.1443 12.1011 59.385 13.3407 60.9543 13.3384L60.952 13.3407Z" fill="white"/>
<path fill-rule="evenodd" clip-rule="evenodd" d="M110.239 11.2378C109.09 11.2378 107.941 11.2447 106.794 11.2309C106.549 11.2286 106.521 11.3133 106.562 11.5168C106.792 12.6055 107.771 13.4357 108.92 13.5043C109.933 13.5638 110.781 13.271 111.341 12.3745C111.401 12.2807 111.466 12.2578 111.564 12.2601C112.208 12.2624 112.851 12.2647 113.494 12.2601C113.669 12.2601 113.703 12.3013 113.623 12.4637C112.879 13.9983 111.725 15.0526 110.011 15.3545C107.766 15.7479 105.565 14.6044 104.655 12.379C103.697 10.0371 104.632 7.36119 106.859 6.14217C109.591 4.64413 113.154 6.0667 113.892 9.36238C114.014 9.90442 114 10.4487 114 10.9976C114 11.1921 113.931 11.2447 113.74 11.2447C112.573 11.2378 111.406 11.2401 110.241 11.2401L110.239 11.2378ZM111.762 9.50418C111.75 9.29148 111.684 9.10623 111.599 8.92555C111.05 7.76371 109.692 7.18737 108.373 7.56016C107.488 7.80945 106.898 8.3675 106.615 9.24117C106.555 9.42414 106.576 9.52705 106.829 9.52477C108.398 9.51104 109.967 9.51791 111.539 9.51791C111.61 9.51791 111.684 9.51104 111.762 9.50647V9.50418Z" fill="white"/>
<path fill-rule="evenodd" clip-rule="evenodd" d="M73.0121 11.2364C71.8633 11.2364 70.7145 11.2432 69.5656 11.2295C69.3428 11.2295 69.2968 11.2958 69.3382 11.4948C69.5748 12.62 70.5743 13.4525 71.7346 13.5051C72.7387 13.5486 73.575 13.2581 74.1265 12.3662C74.1747 12.2861 74.2299 12.2564 74.3241 12.2564C74.9766 12.261 75.6291 12.261 76.2817 12.2564C76.4264 12.2564 76.4884 12.2747 76.408 12.4394C75.6291 14.0563 74.4183 15.1152 72.5916 15.3714C70.0137 15.7328 67.608 14.0129 67.1439 11.3461C66.6913 8.748 68.3479 6.07212 71.1441 5.6147C74.0438 5.14127 76.346 7.14247 76.7274 9.63082C76.794 10.0699 76.7688 10.5045 76.7825 10.9436C76.7894 11.1677 76.7251 11.2409 76.4884 11.2386C75.3304 11.2272 74.1724 11.2341 73.0144 11.2341L73.0121 11.2364ZM71.9598 9.51418C72.6744 9.51418 73.3912 9.51418 74.1058 9.51418C74.4596 9.51418 74.5653 9.34874 74.4229 9.01788C74.4091 8.98357 74.3953 8.95155 74.3792 8.91725C73.8163 7.7577 72.4813 7.18364 71.1786 7.54957C70.3101 7.792 69.7058 8.32489 69.4232 9.18941C69.3175 9.51189 69.3244 9.51418 69.6484 9.51418C70.4181 9.51418 71.1901 9.51418 71.9598 9.51418Z" fill="white"/>
<path fill-rule="evenodd" clip-rule="evenodd" d="M38.7614 6.85668C39.6138 5.69713 40.7512 5.46842 42.0333 5.58735C43.8415 5.75659 44.6778 6.91614 44.9536 8.45764C45.0478 8.99053 45.0707 9.52799 45.0707 10.0677C45.0661 11.6779 45.0638 13.288 45.073 14.8981C45.073 15.0993 45.0294 15.1611 44.8203 15.1542C44.2781 15.1382 43.7358 15.1336 43.1936 15.1542C42.927 15.1657 42.842 15.1108 42.8443 14.8226C42.8627 13.2491 42.8558 11.6756 42.8512 10.1021C42.8512 9.72011 42.8053 9.34045 42.6996 8.96766C42.417 7.97506 41.6036 7.63658 40.7351 7.65487C39.5035 7.68003 38.7913 8.5537 38.7798 9.73383C38.7637 11.4354 38.7637 13.137 38.7683 14.8386C38.7683 15.0879 38.7109 15.1657 38.4512 15.1542C37.8906 15.1313 37.33 15.1405 36.7693 15.1519C36.5878 15.1542 36.5166 15.1222 36.5166 14.9164C36.5235 10.8911 36.5212 6.86583 36.5166 2.84056C36.5166 2.6736 36.5557 2.621 36.728 2.62329C37.3254 2.63472 37.9228 2.63472 38.5201 2.62329C38.7154 2.61871 38.766 2.67818 38.766 2.86801C38.7591 4.07559 38.7614 5.28317 38.7614 6.49075C38.7614 6.59138 38.7614 6.68972 38.7614 6.85668Z" fill="white"/>
<path fill-rule="evenodd" clip-rule="evenodd" d="M86.596 6.88277C87.4392 5.70721 88.5835 5.4602 89.877 5.59057C90.5089 5.6546 91.0925 5.82614 91.6003 6.21951C92.2643 6.73411 92.5859 7.44997 92.7583 8.23901C92.8892 8.83822 92.9283 9.44888 92.926 10.0618C92.9237 11.6628 92.9214 13.2637 92.9306 14.8624C92.9306 15.0774 92.8938 15.1643 92.6526 15.1551C92.0828 15.1346 91.5129 15.1391 90.9431 15.1551C90.7318 15.162 90.6812 15.0957 90.6835 14.8944C90.6904 13.3026 90.6858 11.7108 90.6881 10.1213C90.6881 9.66157 90.6582 9.20645 90.4859 8.77876C90.1137 7.85935 89.344 7.63979 88.6018 7.66266C87.198 7.70612 86.6098 8.64611 86.6006 10.055C86.5914 11.6651 86.596 13.2752 86.6006 14.883C86.6006 15.082 86.5661 15.1666 86.3364 15.1597C85.7573 15.1391 85.1783 15.1483 84.5993 15.1551C84.4454 15.1551 84.3765 15.1414 84.3765 14.9562C84.3834 10.9149 84.3811 6.87133 84.3765 2.83006C84.3765 2.67911 84.4132 2.62879 84.5741 2.63108C85.1806 2.64023 85.7872 2.64252 86.3938 2.63108C86.5753 2.62651 86.6006 2.69283 86.6006 2.85293C86.5937 4.17715 86.5983 5.50137 86.5983 6.88963L86.596 6.88277Z" fill="white"/>
<path fill-rule="evenodd" clip-rule="evenodd" d="M50.346 11.9663C50.5826 11.3053 50.8032 10.6946 51.0238 10.0817C51.5063 8.74376 51.9888 7.40353 52.4667 6.0633C52.5264 5.89405 52.6069 5.82773 52.7999 5.8323C53.4248 5.84831 54.0498 5.84602 54.6747 5.8323C54.9068 5.82773 54.9252 5.88033 54.8448 6.08845C53.4524 9.66088 52.0669 13.2356 50.6814 16.8103C50.5022 17.2746 50.3161 17.7366 50.1415 18.2031C50.0909 18.3381 50.022 18.3952 49.8658 18.393C49.2132 18.3815 48.5607 18.3838 47.9082 18.3907C47.7313 18.3907 47.6853 18.3701 47.7657 18.1826C48.2275 17.1076 48.6756 16.0281 49.1351 14.9509C49.188 14.8274 49.1903 14.7245 49.1397 14.5964C48.0276 11.7627 46.9248 8.92672 45.8081 6.09531C45.7162 5.86432 45.7622 5.8323 45.9896 5.83687C46.5962 5.8506 47.2028 5.85288 47.8094 5.83687C48.0299 5.83001 48.1264 5.89634 48.2 6.10218C48.8778 7.97987 49.5648 9.85071 50.2518 11.7261C50.2747 11.7902 50.3023 11.8542 50.3483 11.9708L50.346 11.9663Z" fill="white"/>
<path fill-rule="evenodd" clip-rule="evenodd" d="M80.505 6.90561C80.9484 6.22177 81.5412 5.80323 82.3247 5.6317C83.0622 5.47161 83.0599 5.46017 83.0599 6.18746C83.0599 6.66318 83.053 7.13889 83.0645 7.6146C83.0668 7.76784 83.0255 7.81587 82.8669 7.81358C82.5085 7.80901 82.1547 7.85932 81.8192 7.98969C80.9875 8.31674 80.6566 8.996 80.6428 9.82164C80.6152 11.4935 80.629 13.1676 80.6382 14.8418C80.6382 15.0842 80.5877 15.1688 80.328 15.1597C79.7605 15.1368 79.1884 15.1437 78.6209 15.1597C78.4325 15.1643 78.3911 15.1025 78.3911 14.9264C78.3957 11.9829 78.3957 9.03946 78.3911 6.09369C78.3911 5.91301 78.4256 5.83297 78.6324 5.83754C79.1838 5.85126 79.7352 5.84898 80.2844 5.83754C80.4728 5.83297 80.521 5.90158 80.5118 6.0754C80.4981 6.35213 80.5073 6.62887 80.5073 6.9079L80.505 6.90561Z" fill="white"/>
<path fill-rule="evenodd" clip-rule="evenodd" d="M101.529 6.89036C101.972 6.21796 102.562 5.79714 103.346 5.63018C104.07 5.47466 104.067 5.46322 104.067 6.19966C104.067 6.65708 104.058 7.1145 104.072 7.57191C104.079 7.75945 104.033 7.81206 103.835 7.81663C103.328 7.82349 102.834 7.90811 102.411 8.21687C101.843 8.63083 101.655 9.23462 101.648 9.89102C101.63 11.5469 101.634 13.2004 101.643 14.8563C101.643 15.0896 101.6 15.1696 101.347 15.1582C100.77 15.1353 100.189 15.1444 99.6123 15.1536C99.4377 15.1559 99.394 15.0987 99.394 14.9363C99.3986 11.9745 99.3986 9.01049 99.394 6.04872C99.394 5.87261 99.4561 5.83602 99.6192 5.8383C100.18 5.84745 100.74 5.84745 101.301 5.8383C101.48 5.83602 101.545 5.88633 101.533 6.07159C101.517 6.34375 101.529 6.62049 101.529 6.89265V6.89036Z" fill="white"/>
<path fill-rule="evenodd" clip-rule="evenodd" d="M97.2823 10.507C97.2823 11.9708 97.2777 13.4345 97.2869 14.896C97.2869 15.1018 97.234 15.159 97.0272 15.1544C96.4482 15.1407 95.8692 15.143 95.2902 15.1544C95.1064 15.1567 95.0352 15.1201 95.0352 14.9165C95.042 11.9708 95.042 9.02731 95.0352 6.08154C95.0352 5.89171 95.088 5.82996 95.2833 5.83454C95.8531 5.84597 96.4229 5.85055 96.9928 5.83454C97.2179 5.82768 97.2892 5.88257 97.2869 6.11814C97.2754 7.58187 97.2823 9.0456 97.2823 10.507Z" fill="white"/>
<path fill-rule="evenodd" clip-rule="evenodd" d="M95.058 4.06132C95.0672 3.84862 95.1246 3.68852 95.251 3.55816C95.5129 3.29057 95.7817 3.02984 96.0368 2.75539C96.1402 2.64561 96.1999 2.66162 96.2964 2.76225C96.5422 3.0207 96.8042 3.26084 97.05 3.51928C97.3625 3.84633 97.3671 4.23971 97.0615 4.56905C96.8134 4.83664 96.5422 5.08364 96.2895 5.34666C96.1976 5.44043 96.1379 5.44272 96.0459 5.34666C95.7817 5.06992 95.5083 4.80005 95.2395 4.52788C95.1016 4.38837 95.0649 4.21455 95.0557 4.06132H95.058Z" fill="#DFF0FF"/>
</g>
<defs>
<clipPath id="clip0_167_24">
<rect width="114" height="21" fill="white"/>
</clipPath>
</defs>
</svg>
