<svg width="153" height="51" viewBox="0 0 153 51" fill="none" xmlns="http://www.w3.org/2000/svg">
<rect x="0.760742" width="152" height="43" rx="8" fill="#E9F7EF"/>
<circle cx="29.7607" cy="21.5" r="13" fill="#BBF3D2"/>
<path d="M33.944 17.6038C33.3592 17.6038 32.9023 17.1321 32.5905 16.6374C32.5454 16.5659 32.4959 16.4969 32.4419 16.4305C32.1812 16.1011 31.8278 15.8541 31.3818 15.6894C30.9358 15.5247 30.428 15.4424 29.8585 15.4424C29.2616 15.4424 28.7367 15.535 28.2838 15.7203C27.8309 15.9056 27.481 16.1663 27.234 16.5025C26.9869 16.8319 26.8634 17.2093 26.8634 17.6347C26.8634 18.2659 27.1207 18.7531 27.6354 19.0962C28.1568 19.4324 28.8053 19.6932 29.5806 19.8784L31.0113 20.2592C32.2532 20.568 33.279 21.0415 34.0887 21.6796C34.9052 22.3177 35.3135 23.2475 35.3135 24.4688C35.3135 25.3128 35.0939 26.0676 34.6548 26.7331C34.2225 27.3918 33.5878 27.9065 32.7507 28.277C31.9204 28.6475 30.9324 28.8328 29.7865 28.8328C28.6749 28.8328 27.7108 28.6544 26.8943 28.2976C26.0847 27.9408 25.4465 27.4364 24.9799 26.7846C24.7371 26.4403 24.5508 26.0616 24.4209 25.6485C24.2239 25.0217 24.7629 24.4585 25.4198 24.4585C26.0142 24.4585 26.4741 24.9432 26.768 25.4598C26.8312 25.5709 26.9042 25.6762 26.9869 25.7759C27.2889 26.1327 27.68 26.4004 28.1603 26.5788C28.6475 26.7572 29.1861 26.8429 29.7762 26.8361C30.4074 26.8361 30.9735 26.7366 31.4744 26.5376C31.9753 26.3386 32.3664 26.0573 32.6478 25.6936C32.9291 25.3299 33.0697 24.908 33.0697 24.4276C33.0697 24.016 32.9531 23.666 32.7198 23.3778C32.4865 23.0896 32.1674 22.8563 31.7626 22.6779C31.3578 22.4995 30.8569 22.3314 30.2599 22.1736L28.4896 21.7105C27.2408 21.3674 26.2802 20.8768 25.6078 20.2387C24.9422 19.5937 24.6128 18.7668 24.6197 17.7582C24.6197 16.9142 24.8461 16.1663 25.299 15.5145C25.7587 14.8626 26.39 14.3617 27.1928 14.0118C28.0025 13.655 28.9082 13.4766 29.91 13.4766C30.9049 13.4766 31.7935 13.655 32.5757 14.0118C33.3648 14.3617 33.9789 14.8523 34.418 15.4836C34.6365 15.7894 34.8031 16.115 34.9178 16.4603C35.1194 17.067 34.5834 17.6038 33.944 17.6038Z" fill="#00C696"/>
<path d="M29.9512 12.5L29.9512 14.3291" stroke="#00C696" stroke-width="2" stroke-linecap="round"/>
<path d="M29.9512 27.918L29.9512 29.7471" stroke="#00C696" stroke-width="2" stroke-linecap="round"/>
<path d="M57.5127 19.702H59.9067V22.6H57.5127V19.702ZM65.1267 12.934H67.5207V22.582H65.1267V12.934ZM53.7507 20.44L53.4987 18.784C56.7027 18.784 60.6447 18.784 64.1547 18.442L64.2807 19.918C60.6627 20.422 56.8647 20.458 53.7507 20.44ZM55.8567 23.086H67.5207V26.992H58.2507V28.306H55.8927V25.498H65.1447V24.706H55.8567V23.086ZM55.8927 27.856H67.8987V29.494H55.8927V27.856ZM62.1747 20.656H65.8647V22.078H62.1747V20.656ZM58.7907 13.168C61.2747 13.168 62.9487 14.158 62.9487 15.67C62.9487 17.2 61.2747 18.172 58.7907 18.172C56.2887 18.172 54.6147 17.2 54.6147 15.67C54.6147 14.158 56.2887 13.168 58.7907 13.168ZM58.7907 14.734C57.5847 14.734 56.8467 15.058 56.8467 15.67C56.8467 16.282 57.5847 16.588 58.7907 16.588C59.9787 16.588 60.7167 16.282 60.7167 15.67C60.7167 15.058 59.9787 14.734 58.7907 14.734ZM72.5579 18.586V14.842H78.6599V28H74.4659V18.586H72.5579ZM80.1434 21.232C80.1434 19.156 80.5814 17.524 81.4574 16.336C82.3454 15.148 83.7074 14.554 85.5434 14.554C87.3674 14.554 88.7234 15.154 89.6114 16.354C90.4994 17.542 90.9434 19.168 90.9434 21.232C90.9434 23.308 90.4994 24.946 89.6114 26.146C88.7234 27.334 87.3674 27.928 85.5434 27.928C83.7074 27.928 82.3454 27.334 81.4574 26.146C80.5814 24.946 80.1434 23.308 80.1434 21.232ZM87.0014 21.232C87.0014 20.272 86.9054 19.552 86.7134 19.072C86.5214 18.58 86.1314 18.334 85.5434 18.334C84.9434 18.334 84.5474 18.58 84.3554 19.072C84.1634 19.552 84.0674 20.272 84.0674 21.232C84.0674 22.204 84.1634 22.936 84.3554 23.428C84.5474 23.908 84.9434 24.148 85.5434 24.148C86.1314 24.148 86.5214 23.908 86.7134 23.428C86.9054 22.936 87.0014 22.204 87.0014 21.232ZM92.0614 21.232C92.0614 19.156 92.4994 17.524 93.3754 16.336C94.2634 15.148 95.6254 14.554 97.4614 14.554C99.2854 14.554 100.641 15.154 101.529 16.354C102.417 17.542 102.861 19.168 102.861 21.232C102.861 23.308 102.417 24.946 101.529 26.146C100.641 27.334 99.2854 27.928 97.4614 27.928C95.6254 27.928 94.2634 27.334 93.3754 26.146C92.4994 24.946 92.0614 23.308 92.0614 21.232ZM98.9194 21.232C98.9194 20.272 98.8234 19.552 98.6314 19.072C98.4394 18.58 98.0494 18.334 97.4614 18.334C96.8614 18.334 96.4654 18.58 96.2734 19.072C96.0814 19.552 95.9854 20.272 95.9854 21.232C95.9854 22.204 96.0814 22.936 96.2734 23.428C96.4654 23.908 96.8614 24.148 97.4614 24.148C98.0494 24.148 98.4394 23.908 98.6314 23.428C98.8234 22.936 98.9194 22.204 98.9194 21.232ZM104.609 14.302H112.547V22.348H104.609V14.302ZM110.189 16.192H106.967V20.458H110.189V16.192ZM114.851 12.934H117.245V25.084H114.851V12.934ZM116.561 17.74H119.459V19.702H116.561V17.74ZM106.499 27.406H117.839V29.314H106.499V27.406ZM106.499 23.896H108.893V28.36H106.499V23.896ZM125.02 21.484H127.414V25.138H125.02V21.484ZM132.328 12.934H134.722V25.552H132.328V12.934ZM122.716 27.406H135.082V29.314H122.716V27.406ZM122.716 24.364H125.11V27.91H122.716V24.364ZM120.916 22.204L120.628 20.296C123.67 20.296 127.738 20.26 131.23 19.81L131.374 21.52C127.828 22.114 123.922 22.204 120.916 22.204ZM129.178 22.618H132.85V24.256H129.178V22.618ZM125.992 13.51C128.422 13.51 130.132 14.716 130.132 16.48C130.132 18.262 128.422 19.45 125.992 19.45C123.544 19.45 121.834 18.262 121.834 16.48C121.834 14.716 123.544 13.51 125.992 13.51ZM125.992 15.256C124.876 15.256 124.102 15.67 124.102 16.48C124.102 17.29 124.876 17.704 125.992 17.704C127.09 17.704 127.864 17.29 127.864 16.48C127.864 15.67 127.09 15.256 125.992 15.256Z" fill="#00C696"/>
<path d="M78.433 50.25C78.2406 50.5833 77.7594 50.5833 77.567 50.25L71.5048 39.75C71.3124 39.4167 71.5529 39 71.9378 39L84.0622 39C84.4471 39 84.6876 39.4167 84.4952 39.75L78.433 50.25Z" fill="#E9F7EF"/>
</svg>
